<svg width="24" height="21" viewBox="0 0 24 21" fill="none" xmlns="http://www.w3.org/2000/svg">
    <path fill-rule="evenodd" clip-rule="evenodd" d="M21.144 4.92532L11.782 16.2877C9.2957 14.3762 5.84169 13.7843 1.50726 14.3939C5.7758 15.2475 9.50797 17.1253 12.4562 20.5L24 5.89164C23.5498 5.3122 22.5978 4.99021 21.144 4.92532ZM7.27024 9.09249C8.60832 6.87463 11.3525 3.71473 13.9628 0.5C8.61152 1.76472 3.97614 5.91455 0 11.6115C2.35028 10.3263 4.60262 9.44988 7.27024 9.09249ZM14.5985 2.49059L7.73573 11.1088C4.78568 11.0425 2.50307 11.819 0.634674 13.1184C4.72015 12.2305 8.58125 11.9991 11.8216 13.5824L20.7472 2.25881C18.7827 2.04577 16.7209 2.16513 14.5985 2.49059Z" fill="currentColor"/>
</svg>