<svg xmlns="http://www.w3.org/2000/svg" viewBox="0 0 17 17"><defs><style>.cls-1{fill:#008585;fill-rule:evenodd;}</style></defs><title>WordExplorer</title><g id="Warstwa_2" data-name="Warstwa 2"><g id="Warstwa_1-2" data-name="Warstwa 1"><path class="cls-1" d="M8.5,0A8.5,8.5,0,1,0,17,8.5,8.51,8.51,0,0,0,8.5,0Zm0,16A7.5,7.5,0,1,1,16,8.5,7.5,7.5,0,0,1,8.5,16ZM6.32,7.38C5.52,9.32,4,13,4,13l5.57-2.28a2.85,2.85,0,0,0,1.59-1.67C11.82,7.24,13,4,13,4L8,5.79A2.8,2.8,0,0,0,6.32,7.38ZM9.45,8.5a.95.95,0,1,1-.95-1A.94.94,0,0,1,9.45,8.5Z"/></g></g></svg>