<svg xmlns="http://www.w3.org/2000/svg" viewBox="0 0 16.01 13.49"><defs><style>.cls-1{fill:#008585;}.cls-2{fill:#ef5454;}.cls-3{fill:#fff;}</style></defs><title>DisableRule</title><g id="Warstwa_2" data-name="Warstwa 2"><g id="Warstwa_1-2" data-name="Warstwa 1"><path class="cls-1" d="M1.77,0,1,.73,3.5,3.13A8.12,8.12,0,0,0,.09,6.54L0,6.74.09,7A8.46,8.46,0,0,0,8,11.43c.2,0,.38,0,.57,0h0a9.62,9.62,0,0,0,2.89-.57l2.76,2.66.77-.74-2.48-2.38-.74-.72-.07-.06L9.46,7.41,7.31,5.34,5.75,3.84l-.37-.36-.85-.82ZM8,2.06a10.81,10.81,0,0,0-1.66.14l1,1A4.62,4.62,0,0,1,8,3.1a3.72,3.72,0,0,1,3.78,3.64,3.39,3.39,0,0,1-.07.64l.88.85a4.58,4.58,0,0,0,.27-1.49A4.52,4.52,0,0,0,11.92,4a7.21,7.21,0,0,1,2.9,2.74,6.91,6.91,0,0,1-1.72,2l.77.74A7.86,7.86,0,0,0,15.92,7L16,6.74l-.09-.2A8.47,8.47,0,0,0,8,2.06ZM4.08,4a4.47,4.47,0,0,0,0,5.46A7.1,7.1,0,0,1,1.19,6.74,7.23,7.23,0,0,1,4.08,4ZM5,4.58,6.55,6.09A1.54,1.54,0,0,0,8,8.31a1.6,1.6,0,0,0,.69-.17l1.56,1.5A3.8,3.8,0,0,1,8,10.39,3.72,3.72,0,0,1,4.23,6.74,3.53,3.53,0,0,1,5,4.58Z"/><g id="w3" data-name="w3" transform="scale(.79, .79) translate(2.5 0)"><circle class="cls-2" cx="11.65" cy="10.99" r="6"/><polygon class="cls-3" points="14.62 8.75 13.89 8.02 11.65 10.26 9.41 8.02 8.68 8.75 10.92 10.99 8.68 13.22 9.41 13.95 11.65 11.71 13.89 13.95 14.62 13.22 12.38 10.99 14.62 8.75"/></g></g></g></svg>