<svg xmlns="http://www.w3.org/2000/svg" viewBox="0 0 17.65 16.99"><defs><style>.cls-1{fill:#008585;}.cls-2{fill:#ef5454;}.cls-3{fill:#fff;}</style></defs><title>AddToDictionaryNotAuthorized</title><g id="Warstwa_2" data-name="Warstwa 2"><g id="Warstwa_1-2" data-name="Warstwa 1"><path class="cls-1" d="M12,17,6,14,0,17V2.12A2.12,2.12,0,0,1,2.12,0H9.89A2.12,2.12,0,0,1,12,2.12ZM6,12.83,11,15.28V2.12A1.07,1.07,0,0,0,9.89,1.06H2.12A1.07,1.07,0,0,0,1.06,2.12V15.28Z"/><circle class="cls-2" cx="11.65" cy="10.99" r="6"/><polygon class="cls-3" points="14.62 8.75 13.89 8.02 11.65 10.26 9.41 8.02 8.68 8.75 10.92 10.99 8.68 13.22 9.41 13.95 11.65 11.71 13.89 13.95 14.62 13.22 12.38 10.99 14.62 8.75"/></g></g></svg>